HIERARCHY
ROOT root
{
	OFFSET 0.000000 0.000000 0.000000
	CHANNELS 6 Xposition Yposition Zposition Zrotation Yrotation Xrotation
	JOINT lhip
	{
		OFFSET 0.058581 -0.082280 -0.017664
		CHANNELS 3 Zrotation Yrotation Xrotation
		JOINT lknee
		{
			OFFSET 0.043451 -0.386469 0.008037
			CHANNELS 3 Zrotation Yrotation Xrotation
			JOINT lankle
			{
				OFFSET -0.014790 -0.426874 -0.037428
				CHANNELS 3 Zrotation Yrotation Xrotation
				JOINT ltoe
				{
					OFFSET 0.041054 -0.060286 0.122042
					CHANNELS 3 Zrotation Yrotation Xrotation
					End Site
					{
						OFFSET 0.000000 0.000000 0.000000
					}
				}
			}
		}
	}
	JOINT rhip
	{
		OFFSET -0.060310 -0.090513 -0.013543
		CHANNELS 3 Zrotation Yrotation Xrotation
		JOINT rknee
		{
			OFFSET -0.043257 -0.383688 -0.004843
			CHANNELS 3 Zrotation Yrotation Xrotation
			JOINT rankle
			{
				OFFSET 0.019056 -0.420046 -0.034562
				CHANNELS 3 Zrotation Yrotation Xrotation
				JOINT rtoe
				{
					OFFSET -0.034840 -0.062106 0.130323
					CHANNELS 3 Zrotation Yrotation Xrotation
					End Site
					{
						OFFSET 0.000000 0.000000 0.000000
					}
				}
			}
		}
	}
	JOINT lowerback
	{
		OFFSET 0.004439 0.124404 -0.038385
		CHANNELS 3 Zrotation Yrotation Xrotation
		JOINT upperback
		{
			OFFSET 0.004488 0.137956 0.026820
			CHANNELS 3 Zrotation Yrotation Xrotation
			JOINT chest
			{
				OFFSET -0.002265 0.056032 0.002855
				CHANNELS 3 Zrotation Yrotation Xrotation
				JOINT lowerneck
				{
					OFFSET -0.013390 0.211636 -0.033468
					CHANNELS 3 Zrotation Yrotation Xrotation
					JOINT upperneck
					{
						OFFSET 0.010113 0.088937 0.050410
						CHANNELS 3 Zrotation Yrotation Xrotation
						End Site
						{
							OFFSET 0.000000 0.000000 0.000000
						}
					}
				}
				JOINT lclavicle
				{
					OFFSET 0.071702 0.114000 -0.018898
					CHANNELS 3 Zrotation Yrotation Xrotation
					JOINT lshoulder
					{
						OFFSET 0.122921 0.045205 -0.019046
						CHANNELS 3 Zrotation Yrotation Xrotation
						JOINT lelbow
						{
							OFFSET 0.255332 -0.015649 -0.022946
							CHANNELS 3 Zrotation Yrotation Xrotation
							JOINT lwrist
							{
								OFFSET 0.265709 0.012698 -0.007375
								CHANNELS 3 Zrotation Yrotation Xrotation
								End Site
								{
									OFFSET 0.000000 0.000000 0.000000
								}
							}
						}
					}
				}
				JOINT rclavicle
				{
					OFFSET -0.082954 0.112472 -0.023707
					CHANNELS 3 Zrotation Yrotation Xrotation
					JOINT rshoulder
					{
						OFFSET -0.113228 0.046853 -0.008472
						CHANNELS 3 Zrotation Yrotation Xrotation
						JOINT relbow
						{
							OFFSET -0.260127 -0.014369 -0.031269
							CHANNELS 3 Zrotation Yrotation Xrotation
							JOINT rwrist
							{
								OFFSET -0.269108 0.006794 -0.006027
								CHANNELS 3 Zrotation Yrotation Xrotation
								End Site
								{
									OFFSET 0.000000 0.000000 0.000000
								}
							}
						}
					}
				}
			}
		}
	}
}
MOTION
Frames: 5
Frame Time: 0.033333
2.342371 0.670316 0.982303 -87.857130 2.631398 86.915065 0.101857 -6.010828 1.531967 0.686529 -3.517739 2.739697 2.570846 9.247302 -12.807694 0.000000 -0.000000 0.000000 3.752937 -0.546512 -4.530560 -4.665263 -4.376571 14.204520 1.684737 -5.154479 -15.482988 0.000000 -0.000000 0.000000 -9.441327 3.636952 8.368380 -5.011123 -1.646828 6.113368 -2.687236 -0.036349 0.452827 6.394409 2.563486 3.906582 9.421542 -10.871328 9.588258 -16.389501 -21.292247 -0.375635 -70.531931 -26.267226 42.490532 -86.993713 -73.879481 101.998812 -10.635615 -13.016255 -46.300629 17.889760 24.347120 1.033131 69.775141 22.439679 34.626465 3.745582 34.031124 27.866337 24.064685 -4.592306 1.163466 
2.342574 0.670270 0.982196 -87.707521 2.695623 86.843223 0.259410 -6.005600 1.382701 0.500599 -3.549655 3.112395 2.121850 9.084579 -12.896217 0.000000 -0.000000 0.000000 3.839055 -0.638928 -4.516592 -4.742145 -4.481682 14.343398 1.833998 -5.058510 -15.509415 0.000000 -0.000000 0.000000 -9.255307 3.538633 8.651607 -5.148927 -1.685216 5.922391 -2.798639 -0.038465 0.705147 6.200322 2.612067 3.898975 9.665566 -10.947834 9.210948 -15.950322 -21.184400 -0.623226 -70.946230 -26.166619 42.769042 -86.785134 -74.163699 102.373672 -10.497422 -13.263434 -46.597026 17.823952 24.190170 0.765443 70.041714 22.360842 34.562615 3.698306 34.197396 28.162552 24.477209 -4.596022 0.964403 
2.342951 0.670185 0.982349 -87.576630 2.730928 86.754820 0.279363 -6.028243 1.328350 0.559073 -3.544937 3.324566 2.261097 9.058911 -13.015608 0.000000 -0.000000 0.000000 3.924793 -0.522297 -4.419856 -4.806181 -4.544726 14.336126 1.793971 -5.259255 -15.410964 0.000000 -0.000000 0.000000 -9.180570 3.432637 8.956961 -5.294390 -1.721452 5.909981 -2.886750 -0.033634 0.763432 6.310363 2.515500 3.910147 9.877117 -10.771230 8.838574 -15.671639 -21.264539 -0.649445 -70.991795 -26.183997 42.720852 -87.740018 -74.273714 103.381873 -10.332957 -13.241854 -46.726810 17.206669 24.309379 0.681088 70.600443 22.542627 34.691324 3.664591 34.231738 27.721366 23.975211 -4.403647 0.788290 
2.343433 0.669726 0.982513 -87.411944 2.887269 86.862853 0.518263 -6.306624 0.904319 0.282917 -3.589986 3.874458 2.058418 9.139848 -12.859810 0.000000 -0.000000 0.000000 4.098933 -0.396579 -4.546857 -4.833642 -4.621483 14.445651 1.688018 -5.547747 -15.377637 0.000000 -0.000000 0.000000 -9.392185 3.578484 8.746609 -5.164970 -1.792757 6.134204 -2.575991 0.141298 0.851827 6.288887 2.175774 4.318622 10.091165 -10.831115 8.266874 -15.348510 -21.598213 -0.550105 -71.420116 -26.336671 42.819205 -87.481839 -74.355170 103.287627 -10.313054 -12.897774 -47.173239 17.400773 25.339328 1.424477 69.550718 22.220905 34.415486 2.487947 35.072337 26.681416 23.544093 -4.095232 -0.001763 
2.343935 0.669680 0.982574 -87.396402 2.906262 86.950111 0.571652 -6.397308 0.612612 0.222290 -3.597054 4.179378 2.327458 9.210773 -12.962574 0.000000 -0.000000 0.000000 4.102302 -0.378145 -4.794835 -4.842587 -4.657854 14.662602 1.702863 -5.556902 -15.355361 0.000000 -0.000000 0.000000 -9.255022 3.604026 8.805001 -5.215987 -1.724214 6.087682 -2.706242 0.110733 0.936627 6.279357 2.270491 4.222022 10.157596 -10.923178 8.136611 -15.222274 -21.409500 -0.684491 -71.525089 -26.294119 42.857482 -87.899859 -74.257884 103.901966 -10.360810 -12.911018 -47.306883 17.241889 24.734586 1.151265 69.986813 22.443856 34.361719 3.131402 34.921152 27.480662 23.479650 -4.220981 0.395900 
